<?xml version="1.0" encoding="UTF-8" standalone="no"?>
<!DOCTYPE svg PUBLIC "-//W3C//DTD SVG 1.1//EN" "http://www.w3.org/Graphics/SVG/1.1/DTD/svg11.dtd">
<svg width="100%" height="100%" viewBox="0 0 275 275" version="1.1" xmlns="http://www.w3.org/2000/svg" xmlns:xlink="http://www.w3.org/1999/xlink" xml:space="preserve" xmlns:serif="http://www.serif.com/" style="fill-rule:evenodd;clip-rule:evenodd;stroke-linejoin:round;stroke-miterlimit:2;">
    <g transform="matrix(1,0,0,1,-1575.56,-52.5)">
        <g transform="matrix(1.00203,0,0,1.00203,165.927,4.62509)">
            <path d="M1558.1,47.778L1600.4,59.112L1586.3,111.734L1624.82,73.212L1655.79,104.178L1617.27,142.7L1669.89,128.6L1681.22,170.9L1628.6,185L1681.22,199.1L1669.89,241.4L1617.27,227.3L1655.79,265.822L1624.82,296.788L1586.3,258.266L1600.4,310.888L1558.1,322.222L1544,269.6L1529.9,322.222L1487.6,310.888L1501.7,258.266L1463.18,296.788L1432.21,265.822L1470.73,227.3L1418.11,241.4L1406.78,199.1L1459.4,185L1406.78,170.9L1418.11,128.6L1470.73,142.7L1432.21,104.178L1463.18,73.212L1501.7,111.734L1487.6,59.112L1529.9,47.778L1544,100.4L1558.1,47.778Z"/>
        </g>
    </g>
</svg>
